<?xml version="1.0" encoding="utf-8"?>
<!-- Generator: Adobe Illustrator 16.0.0, SVG Export Plug-In . SVG Version: 6.00 Build 0)  -->
<!DOCTYPE svg PUBLIC "-//W3C//DTD SVG 1.1//EN" "http://www.w3.org/Graphics/SVG/1.1/DTD/svg11.dtd">
<svg version="1.1" id="Layer_1" xmlns="http://www.w3.org/2000/svg" xmlns:xlink="http://www.w3.org/1999/xlink" x="0px" y="0px"
	 width="512px" height="512px" viewBox="0 0 512 512" enable-background="new 0 0 512 512" xml:space="preserve">
<path fill="#43B1E5" d="M294.956,435.603C279.075,421.152,271.135,401,271.135,374h63.528c0,12,2.077,20.962,6.229,26.379
	c4.15,5.422,11.098,8.224,20.845,8.224c8.782,0,15.965-3.233,20.72-9.798c4.752-6.564,7.544-15.699,7.544-27.5V191h63v180.305
	c0,11.511-2.211,22.146-5.879,31.949c37.832-38.635,60.789-90.269,60.789-147c0-119.71-102.994-216.759-229.947-216.759
	c-126.947,0-229.9,97.049-229.9,216.759c0,52.609,19.867,100.833,52.924,138.376c-33.214,1.13-69.451-0.704-97.129-10.188
	c30.129,34.44,145.545,80.418,260.919,88.576l-0.747-0.429c4.586,0.254,9.195,0.425,13.854,0.425
	c30.311,0,59.244-5.543,85.742-15.596c-0.635,0.009-1.253-0.044-1.889-0.044C333.1,457.374,310.841,450.054,294.956,435.603z"/>
</svg>
