<?xml version="1.0" encoding="utf-8"?>
<!-- Generator: Adobe Illustrator 16.0.0, SVG Export Plug-In . SVG Version: 6.00 Build 0)  -->
<!DOCTYPE svg PUBLIC "-//W3C//DTD SVG 1.1//EN" "http://www.w3.org/Graphics/SVG/1.1/DTD/svg11.dtd">
<svg version="1.1" id="Layer_1" xmlns="http://www.w3.org/2000/svg" xmlns:xlink="http://www.w3.org/1999/xlink" x="0px" y="0px"
	 width="809.217px" height="234.584px" viewBox="0 0 809.217 234.584" enable-background="new 0 0 809.217 234.584"
	 xml:space="preserve">
<g>
	<g>
		<path fill="#43B1E5" d="M303.236,188.197c-1.993,3.377-5.347,5.065-10.062,5.065c-5.488,0-8.232-2.827-8.232-8.483v-42.908
			h-20.552v42.785c0,7.895,1.86,13.947,5.58,18.158c3.72,4.212,9.198,6.317,16.435,6.317c7.399,0,13.273-2.786,17.625-8.362
			l0.61,7.142h19.271v-66.04h-20.673V188.197z M355.255,156.001c1.464-1.2,3.272-1.801,5.428-1.801c5.569,0,8.354,2.646,8.354,7.935
			h20.613c0-6.429-2.644-11.617-7.928-15.564c-5.286-3.945-12.278-5.92-20.978-5.92c-8.091,0-14.636,1.964-19.637,5.891
			c-5.001,3.927-7.501,8.921-7.501,14.983c0,3.418,0.874,6.45,2.623,9.095c1.748,2.645,4.289,4.893,7.623,6.744
			c3.333,1.852,7.562,3.348,12.685,4.486s8.599,2.238,10.428,3.295c1.83,1.059,2.744,2.463,2.744,4.212
			c0,1.831-0.701,3.317-2.104,4.456c-1.402,1.139-3.506,1.709-6.312,1.709c-3.049,0-5.55-0.702-7.501-2.105
			c-1.952-1.404-2.968-3.633-3.049-6.684h-19.21c0,3.865,1.24,7.548,3.72,11.047c2.479,3.5,5.935,6.267,10.367,8.301
			c4.431,2.034,9.472,3.052,15.124,3.052c8.497,0,15.418-1.892,20.765-5.677c5.346-3.783,8.02-8.687,8.02-14.709
			c0-8.829-4.961-14.953-14.88-18.371c-2.968-1.018-6.414-1.893-10.337-2.625c-3.924-0.732-6.78-1.668-8.568-2.808
			c-1.79-1.139-2.683-2.624-2.683-4.456C353.06,158.697,353.792,157.201,355.255,156.001z M424.411,191.554
			c-0.895-0.977-1.342-2.706-1.342-5.188v-30.212h10.855v-14.282h-10.855v-16.418h-20.552v16.418h-8.416v14.282h8.416v32.776
			c0,6.795,1.687,11.861,5.062,15.197c3.375,3.337,8.6,5.005,15.674,5.005c4.024,0,7.887-0.591,11.586-1.771v-14.709
			c-1.383,0.244-3.09,0.366-5.123,0.366C427.073,193.019,425.304,192.53,424.411,191.554z M498.536,136.53
			c2.216-1.688,5.234-2.532,9.057-2.532c3.781,0,6.778,0.997,8.995,2.99c2.215,1.994,3.323,4.802,3.323,8.423h21.345
			c0-5.411-1.402-10.224-4.208-14.435c-2.806-4.212-6.738-7.456-11.801-9.735c-5.062-2.278-10.784-3.418-17.166-3.418
			c-6.547,0-12.441,1.048-17.686,3.144s-9.301,5.025-12.166,8.789c-2.867,3.764-4.3,8.107-4.3,13.031
			c0,9.887,5.753,17.66,17.259,23.314c3.537,1.75,8.09,3.562,13.66,5.433c5.569,1.872,9.462,3.683,11.678,5.433
			s3.324,4.191,3.324,7.324c0,2.768-1.027,4.913-3.08,6.438c-2.053,1.526-4.848,2.289-8.385,2.289
			c-5.529,0-9.524-1.129-11.983-3.388c-2.46-2.258-3.689-5.768-3.689-10.528h-21.466c0,5.859,1.473,11.038,4.42,15.533
			c2.948,4.497,7.339,8.037,13.174,10.62c5.833,2.585,12.349,3.876,19.545,3.876c10.204,0,18.233-2.218,24.088-6.653
			c5.854-4.434,8.782-10.537,8.782-18.311c0-9.725-4.798-17.354-14.393-22.888c-3.943-2.278-8.985-4.404-15.124-6.378
			s-10.428-3.886-12.867-5.737s-3.659-3.916-3.659-6.195C495.212,140.366,496.32,138.22,498.536,136.53z M606.203,163.722
			c-0.122-7.161-2.622-12.796-7.501-16.907c-4.879-4.109-11.525-6.164-19.941-6.164s-15.338,1.992-20.765,5.975
			c-5.428,3.982-8.142,9.165-8.142,15.545h20.552c0-4.824,2.438-7.237,7.317-7.237c5.245,0,7.867,3.046,7.867,9.138v3.496h-6.343
			c-10.083,0-17.767,1.832-23.052,5.494s-7.928,9.074-7.928,16.234c0,5.697,2.175,10.428,6.525,14.191
			c4.35,3.764,9.636,5.646,15.855,5.646c6.789,0,12.075-2.38,15.856-7.142c0.568,2.605,1.22,4.578,1.951,5.921h20.552v-1.038
			c-1.79-3.213-2.725-7.852-2.806-13.916V163.722z M585.59,189.112c-0.731,1.384-1.942,2.624-3.629,3.724
			c-1.688,1.098-3.812,1.647-6.372,1.647c-1.952,0-3.559-0.579-4.818-1.739c-1.261-1.16-1.891-2.676-1.891-4.547
			c0-6.43,3.577-9.645,10.733-9.645h5.977V189.112z M643.037,179.103l-10.428-37.231h-21.954l22.93,66.703l-1.646,4.398
			c-0.732,2.158-1.86,3.654-3.385,4.49c-1.524,0.834-3.73,1.252-6.616,1.252h-2.684v14.652c2.967,0.811,5.793,1.217,8.477,1.217
			c9.676,0,16.425-4.273,20.247-12.818l1.158-2.807l26.894-77.088h-22.015L643.037,179.103z M714.875,207.911h21.345v-88.867
			h-21.345V207.911z M803.942,146.814c-3.395-4.109-8.527-6.164-15.398-6.164c-8.01,0-14.291,2.99-18.844,8.973l-0.671-7.752
			h-19.271v66.04h20.552V161.28c1.951-3.174,4.939-4.761,8.965-4.761c3.537,0,5.976,0.784,7.317,2.35
			c1.342,1.567,2.013,4.02,2.013,7.355v41.687h20.612v-42.542C809.095,157.109,807.336,150.926,803.942,146.814z"/>
	</g>
</g>
<g>
	<path fill="#43B1E5" d="M153.444,208.881c-8.372-7.617-12.558-18.381-12.558-32.381h33.487c0,6,1.094,10.959,3.282,13.814
		c2.188,2.857,5.851,4.289,10.988,4.289c4.629,0,8.396-1.727,10.902-5.188c2.505-3.459,3.958-8.297,3.958-14.518V79.5h33v95.398
		c0,6.067-1.042,11.674-2.977,16.841c19.941-20.364,32.104-47.581,32.104-77.484C265.631,51.155,211.374,0,144.456,0
		C77.541,0,23.289,51.155,23.289,114.255c0,27.73,10.48,53.149,27.905,72.938c-17.508,0.596-36.605-0.371-51.194-5.37
		c15.882,18.153,76.72,42.389,137.534,46.688l-0.392-0.226c2.417,0.134,4.847,0.224,7.302,0.224c15.977,0,31.229-2.922,45.195-8.221
		c-0.333,0.005-0.659,0.022-0.995,0.022C173.549,220.312,161.816,216.498,153.444,208.881z"/>
	<path fill="#43B1E5" d="M233.476,191.739"/>
</g>
</svg>
